<mxfile host="app.diagrams.net" modified="2024-02-05T06:20:00.893Z" agent="Mozilla/5.0 (Windows NT 10.0; Win64; x64) AppleWebKit/537.36 (KHTML, like Gecko) Chrome/121.0.0.0 Safari/537.36" version="23.1.1" etag="v9QHx8GP_RBJpZXDRZJy" type="github">
  <diagram name="Page-1" id="tkwRNu4APlI2aNabLZ6a">
    <mxGraphModel>
      <root>
        <mxCell id="0" />
        <mxCell id="1" parent="0" />
      </root>
    </mxGraphModel>
  </diagram>
</mxfile>
